# xmcd CD database file
#
# Track frame offsets:
#	150
#	23963
#	52456
#	71069
#	115177
#
# Disc length: 1782 seconds
#
# Revision: 0
# Processed by: cddbd v1.5.2PL0 Copyright (c) Steve Scherf et al.
# Submitted via: CDex 1.51
#
DISCID=4906f405
DTITLE=Buddy Zapata - Live at The Backstage
DYEAR=2004
DGENRE=Blues
TTITLE0=Fathers' Son
TTITLE1=Sampson and Delilah
TTITLE2=Keepin' up with the Jones
TTITLE3=Meteor Hill
TTITLE4=Deep Blue Sea
EXTD=YEAR: 2004
EXTT0=
EXTT1=
EXTT2=
EXTT3=
EXTT4=
PLAYORDER=
